<svg width="122.88" height="122.88" xmlns="http://www.w3.org/2000/svg" data-name="Layer 1">
 <title>compass-northeast</title>

 <g>
  <title>Layer 1</title>
  <path id="svg_1" d="m61.44,0a61.46,61.46 0 1 1 -43.44,18a61.23,61.23 0 0 1 43.44,-18zm5.25,73.85l-3.64,-3.69l-0.15,0a8.38,8.38 0 0 1 -0.88,0a8.86,8.86 0 0 1 -8.88,-8.87a9.2,9.2 0 0 1 0,-0.94l0,-0.2l-4,-4l-11.26,29.14l28.81,-11.44zm-2.22,-6l5.53,5.55l1.43,1.43l-38.26,15.17l15.11,-38.59l7.82,7.92l-0.1,0.67a5.67,5.67 0 0 0 -0.11,0.66c0,0.24 0,0.46 0,0.66a6.23,6.23 0 0 0 6.11,6.24l0.62,0a5.77,5.77 0 0 0 0.62,-0.09l0.7,-0.14l0.51,0.51l0.02,0.01zm-5.95,-12.67l-6.3,-6.39l0.42,-0.85l0.7,-0.64l36.37,-14.45l-15.1,38.62l-7.07,-7.16l0.3,-0.79a5.85,5.85 0 0 0 0.29,-1.07a7.14,7.14 0 0 0 0.1,-1.1a6.23,6.23 0 0 0 -6.23,-6.21a6.56,6.56 0 0 0 -1.08,0.09a5.45,5.45 0 0 0 -1,0.27l-0.8,0.29l-0.6,-0.61zm38.06,-28.88a49.71,49.71 0 1 0 14.55,35.14a49.57,49.57 0 0 0 -14.55,-35.14z"/>
  <path style="vector-effect: non-scaling-stroke;" id="svg_2" d="m71.30999,74.85166l2.52028,-0.8375l1.00305,-3.18083" opacity="NaN"/>
  <path style="vector-effect: non-scaling-stroke;" id="svg_3" d="m48.18498,51.68497l1.80458,-3.27409l5.01043,-1.6609" opacity="NaN"/>
  <path id="svg_4" d="m49.93498,48.55997l4.81501,-0.68499l20.12499,21.62499c0.05999,0.05999 -0.81501,3.43499 -0.94001,3.30999c-0.125,-0.125 -2.375,2.5 -2.80999,1.69001"/>
  <path id="svg_5" d="m71.18497,74.43497c-0.5,0.125 -34.62499,12.125 -34.68498,12.06501c0.05999,0.05999 12.43498,-36.19 12.375,-36.24999c0.05999,0.05999 3.93499,-1.69001 3.875,-1.75c0.05999,0.05999 17.55998,7.93498 17.5,7.875c0.05999,0.05999 -0.69001,10.30998 -0.75,10.25" opacity="NaN"/>
  <path transform="rotate(42.2301, 70.8496, 50.562)" fill="white" stroke-width="0" id="svg_6" d="m58.32072,62.02187l14.25751,-25.22937l10.80017,27.53904l-25.05768,-2.30967z"/>
 </g>
</svg>