<svg width="511" height="511.832" xmlns="http://www.w3.org/2000/svg" clip-rule="evenodd" fill-rule="evenodd" image-rendering="optimizeQuality" text-rendering="geometricPrecision" shape-rendering="geometricPrecision">

 <g>
  <title>Layer 1</title>
  <path id="svg_1" d="m43.084,468.748l116.942,0l0,-104.027c0,-25.882 10.609,-49.45 27.679,-66.528l0.082,-0.081c17.077,-17.07 40.645,-27.679 66.527,-27.679c25.844,0 49.412,10.617 66.519,27.687l0.082,0.081c17.092,17.151 27.686,40.697 27.686,66.52l0,104.027l119.315,0l0,-215.739l-212.07,-201.858l-212.762,202.617l0,214.98zm138.484,43.084l-152.231,0c-8.09,0 -15.428,-3.3 -20.732,-8.605c-5.305,-5.304 -8.605,-12.642 -8.605,-20.732l0,-237.884c0.059,-5.681 2.298,-11.346 6.733,-15.568l234.305,-223.128c8.236,-7.846 21.284,-7.927 29.616,0l232.514,221.323c4.782,3.957 7.832,9.931 7.832,16.614l0,238.643c0,7.964 -3.316,15.391 -8.642,20.717c-5.253,5.253 -12.591,8.62 -20.695,8.62l-154.604,0c-11.891,0 -21.542,-9.651 -21.542,-21.542l0,-125.569c0,-14.109 -5.739,-26.913 -14.978,-36.145l-0.081,-0.081c-9.231,-9.238 -22.036,-14.978 -36.144,-14.978c-14.087,0 -26.913,5.762 -36.189,15.015c-9.253,9.276 -15.014,22.102 -15.014,36.189l0,125.569c0,11.891 -9.652,21.542 -21.543,21.542z" fill-rule="nonzero"/>
  <path id="svg_4" d="m204,294.08398c-2,1 -23,71 -24,70c-1,-1 0,110 0,109.91602c0,0.08398 -156,6.08398 -156,4.08398c0,-2 -6,-231 -6,-231.08398c0,0.08398 243,-222.91602 243,-223c0,0.08398 229,213.08398 229,213c0,0.08398 3,78.08398 3,78c0,0.08398 -10,168.08398 -10,168c0,0.08398 -144,1.08398 -144,1c0,0.08398 -8,-170.91602 -8,-171" opacity="NaN"/>
 </g>
</svg>