<?xml version="1.0" standalone="no"?>
<!DOCTYPE svg PUBLIC "-//W3C//DTD SVG 20010904//EN"
 "http://www.w3.org/TR/2001/REC-SVG-20010904/DTD/svg10.dtd">
<svg version="1.0" xmlns="http://www.w3.org/2000/svg"
 width="1024.000000pt" height="1024.000000pt" viewBox="0 0 1024.000000 1024.000000"
 preserveAspectRatio="xMidYMid meet">
<metadata>
Created by potrace 1.16, written by Peter Selinger 2001-2019
</metadata>
<g transform="translate(0.000000,1024.000000) scale(0.100000,-0.100000)"
fill="#000000" stroke="none">
<path d="M4144 8272 c-12 -9 -76 -99 -143 -199 l-121 -183 -115 0 -115 0 0 85
c0 78 -2 88 -25 110 l-24 25 -339 0 c-415 0 -392 8 -392 -131 l0 -89 -37 0
c-59 0 -211 -35 -283 -64 -291 -119 -509 -383 -560 -679 -9 -50 -13 -628 -14
-2240 l-1 -2172 28 -98 c50 -178 111 -288 231 -415 72 -76 194 -164 281 -202
28 -12 91 -33 140 -48 l90 -27 2335 -3 c1622 -2 2356 1 2405 8 170 26 338 111
476 239 130 120 211 250 266 427 l28 89 3 2180 c3 2401 6 2276 -59 2430 -110
264 -326 462 -593 544 -125 38 -231 44 -729 39 l-468 -5 -121 181 c-66 100
-130 189 -142 198 -20 16 -87 18 -1001 18 -914 0 -981 -2 -1001 -18z m1976
-437 c81 -124 131 -190 150 -200 25 -13 113 -15 597 -15 637 0 624 1 772 -71
120 -59 223 -162 279 -279 65 -136 66 -138 64 -610 l-2 -425 -663 -3 -662 -4
-35 44 c-159 201 -357 370 -575 492 -505 281 -1145 302 -1672 55 -256 -119
-487 -296 -649 -495 l-77 -94 -701 2 -701 3 0 425 c0 478 -1 473 78 624 70
135 196 243 355 305 l67 26 630 5 c515 4 634 8 651 19 18 12 142 191 229 333
l30 48 856 0 857 0 122 -185z m-648 -1144 c272 -59 535 -192 734 -373 228
-207 369 -421 463 -704 51 -154 71 -265 78 -444 18 -462 -159 -889 -505 -1221
-209 -202 -485 -346 -786 -411 -86 -19 -132 -22 -306 -22 -175 0 -220 3 -307
22 -554 120 -1009 506 -1198 1015 -80 218 -116 469 -96 681 71 758 622 1349
1370 1471 127 21 426 13 553 -14z m-2324 -661 l372 0 -46 -92 c-133 -265 -193
-520 -194 -820 0 -408 113 -764 350 -1100 78 -111 274 -312 387 -397 375 -281
800 -408 1269 -379 655 40 1263 459 1553 1070 137 289 188 534 178 860 -9 277
-52 465 -167 719 -28 63 -54 120 -57 127 -4 9 118 12 591 12 l596 0 0 -1490 0
-1490 -2865 0 -2865 0 -2 1418 c-2 779 -2 1453 0 1496 l3 79 262 -6 c144 -4
430 -7 635 -7z m4828 -3237 c-4 -32 -14 -82 -23 -111 l-17 -52 -2825 2 -2826
3 -17 65 c-9 36 -17 84 -17 108 l-1 42 2866 0 2867 0 -7 -57z m-176 -373 c0
-5 -27 -31 -61 -58 -65 -53 -149 -98 -239 -128 -53 -18 -142 -19 -2358 -22
-2003 -2 -2311 0 -2373 13 -100 20 -222 82 -294 149 l-60 55 2693 0 c1632 0
2692 -3 2692 -9z"/>
<path d="M6913 7310 c-53 -21 -54 -30 -51 -400 l3 -342 24 -19 c22 -18 43 -19
350 -19 l328 0 21 23 c22 23 22 28 22 368 -1 362 -1 363 -47 387 -26 14 -616
16 -650 2z"/>
<path d="M4972 6480 c-522 -74 -962 -442 -1132 -947 -86 -259 -86 -585 1 -848
34 -102 123 -276 189 -367 127 -177 340 -355 535 -448 329 -155 696 -176 1032
-59 200 70 376 184 531 343 395 407 505 981 287 1498 -173 410 -531 707 -975
809 -98 23 -366 33 -468 19z m88 -1020 l0 -820 28 -31 c23 -25 36 -32 71 -33
36 -1 47 4 72 32 l29 32 0 820 0 820 34 0 c19 0 86 -13 149 -29 411 -104 736
-426 843 -838 35 -133 44 -375 20 -506 -53 -278 -206 -535 -424 -709 -92 -73
-207 -142 -226 -135 -8 3 -17 19 -21 35 -3 17 -22 56 -41 89 -97 161 -246 243
-443 243 -150 -1 -265 -50 -368 -159 -43 -45 -113 -166 -113 -194 0 -30 -20
-28 -87 9 -256 143 -462 390 -552 659 -183 547 66 1148 585 1412 141 72 299
120 397 122 l47 1 0 -820z m243 -1260 c57 -29 112 -86 137 -144 32 -73 31 -78
-25 -92 -126 -33 -368 -35 -512 -4 -50 11 -53 13 -47 38 17 69 66 138 136 191
64 48 227 54 311 11z"/>
<path d="M5675 5864 c-73 -40 -115 -106 -115 -184 0 -211 284 -277 381 -88 42
83 16 187 -64 252 -33 26 -48 31 -105 33 -48 2 -76 -1 -97 -13z"/>
</g>
</svg>
