<?xml version="1.0" encoding="UTF-8"?>
<svg xmlns="http://www.w3.org/2000/svg" xmlns:xlink="http://www.w3.org/1999/xlink" width="1200px" height="1608px" viewBox="0 0 1200 1608" version="1.1">
<defs>
<linearGradient id="linear0" gradientUnits="userSpaceOnUse" x1="254" y1="328.5" x2="254" y2="370.5" >
<stop offset="0" style="stop-color:rgb(34.901961%,89.019608%,61.176471%);stop-opacity:1;"/>
<stop offset="1" style="stop-color:rgb(0%,53.333333%,29.019608%);stop-opacity:1;"/>
</linearGradient>
</defs>
<g id="surface1">
<path style="fill-rule:nonzero;fill:rgb(31.764707%,89.019608%,33.333334%);fill-opacity:1;stroke-width:1;stroke-linecap:butt;stroke-linejoin:miter;stroke:rgb(0%,0%,0%);stroke-opacity:1;stroke-miterlimit:4;" d="M 154.614258 223.333333 L 356.474609 223.333333 C 368.334961 223.333333 377.949219 232.947591 377.949219 244.806315 L 377.949219 420.89681 C 377.949219 432.757161 368.334961 442.371419 356.474609 442.371419 L 154.614258 442.371419 C 142.755534 442.371419 133.141276 432.757161 133.141276 420.89681 L 133.141276 244.806315 C 133.141276 232.947591 142.755534 223.333333 154.614258 223.333333 Z M 154.614258 223.333333 " transform="matrix(2.4,0,0,2.4,0,0)"/>
<path style="fill-rule:nonzero;fill:rgb(0%,0%,0%);fill-opacity:1;stroke-width:1;stroke-linecap:butt;stroke-linejoin:miter;stroke:rgb(0%,0%,0%);stroke-opacity:1;stroke-miterlimit:4;" d="M 290.99948 353.499641 C 290.99948 334.446717 275.553644 318.999952 256.500445 318.999952 C 237.446109 318.999952 222.000273 334.446717 222.000273 353.499641 C 222.000273 372.553735 237.446109 388.000501 256.500445 388.000501 C 275.553644 388.000501 290.99948 372.553735 290.99948 353.499641 Z M 290.99948 353.499641 " transform="matrix(3.435898,0,0,3.336307,-274.871796,-377.102161)"/>
<path style="fill-rule:nonzero;fill:url(#linear0);stroke-width:1;stroke-linecap:butt;stroke-linejoin:miter;stroke:rgb(0%,0%,0%);stroke-opacity:1;stroke-miterlimit:4;" d="M 275.000211 349.499779 C 275.000211 337.90249 265.598145 328.49973 253.999602 328.49973 C 242.401977 328.49973 232.999911 337.90249 232.999911 349.499779 C 232.999911 361.098043 242.401977 370.499828 253.999602 370.499828 C 265.598145 370.499828 275.000211 361.098043 275.000211 349.499779 Z M 275.000211 349.499779 " transform="matrix(4.253969,0,0,4.008547,-472.354065,-598.705115)"/>
<path style="fill-rule:nonzero;fill:rgb(0%,0%,0%);fill-opacity:1;stroke-width:1;stroke-linecap:butt;stroke-linejoin:miter;stroke:rgb(0%,0%,0%);stroke-opacity:1;stroke-miterlimit:4;" d="M 168.178711 223.152669 L 171.772461 209.969076 L 212.734375 210.192057 L 215.70638 222.801107 Z M 168.178711 223.152669 " transform="matrix(2.4,0,0,2.4,0,0)"/>
<path style="fill-rule:nonzero;fill:rgb(3.529412%,3.529412%,3.529412%);fill-opacity:1;stroke-width:1;stroke-linecap:butt;stroke-linejoin:miter;stroke:rgb(0%,0%,0%);stroke-opacity:1;stroke-miterlimit:4;" d="M 324.736328 248.486328 L 351.5625 248.486328 L 351.5625 272.718099 L 324.736328 272.718099 Z M 324.736328 248.486328 " transform="matrix(2.4,0,0,2.4,0,0)"/>
</g>
</svg>
